#!OML:ASF F:\VICON\USERDATA\INSTALL\Justin_Nancy\Justin_Nancy.ASF
:FULLY-SPECIFIED
:DEGREES
96
root -0.425962 16.0851 16.5371 -10.6035 3.38349 0.138148
lowerback 12.1688 -1.01114 -1.10008
upperback 0.881278 -1.39222 1.61605
thorax -5.83402 -0.635406 2.55666
lowerneck -20.3236 -3.79 -9.9072
upperneck 20.697 -3.98384 7.33946
head 10.3323 -1.75448 3.6762
rclavicle -2.91716e-014 1.27222e-014
rhumerus -55.4128 -1.31614 -88.1635
rradius 83.6208
rwrist -2.24681
rhand -29.1907 27.4376
rfingers 7.12502
rthumb -2.53587 -2.52711
lclavicle -2.91716e-014 1.27222e-014
lhumerus -31.7335 1.31824 91.4492
lradius 115.036
lwrist 22.7039
lhand -30.2296 12.3441
lfingers 7.12502
lthumb -3.53918 42.2945
rfemur -30.2145 -2.60312 17.9449
rtibia 29.8666
rfoot -5.76082 -7.07114
rtoes -9.3159
lfemur -5.21895 -3.19319 -22.6707
ltibia 54.0264
lfoot -27.1481 4.6076
ltoes -11.58
97
root -0.44984 16.1202 16.908 -10.3728 4.13062 1.0657
lowerback 11.3001 -1.30643 -1.98282
upperback 0.774589 -1.90933 1.35568
thorax -5.41493 -0.877426 2.83949
lowerneck -20.1643 -3.64463 -9.82441
upperneck 20.97 -3.79252 7.17021
head 10.377 -1.68564 3.63585
rclavicle 2.92213e-014 -1.98785e-015
rhumerus -57.0185 -1.55285 -87.3164
rradius 84.1684
rwrist -1.86633
rhand -29.4407 27.4019
rfingers 7.12502
rthumb -2.77732 -2.55973
lclavicle 2.92213e-014 -1.98785e-015
lhumerus -31.4027 1.13915 90.9347
lradius 115.558
lwrist 22.6351
lhand -30.3494 12.1206
lfingers 7.12502
lthumb -3.65488 42.069
rfemur -28.7843 -2.64707 16.4287
rtibia 25.3835
rfoot -5.54368 -6.85919
rtoes -9.81479
lfemur -3.35331 -3.83667 -23.825
ltibia 52.994
lfoot -27.5165 4.75255
ltoes -11.6385
98
root -0.496902 16.1328 17.2473 -10.1972 4.54459 1.71652
lowerback 10.9925 -1.47592 -2.86603
upperback 0.56224 -2.24742 1.25026
thorax -5.41631 -1.02165 3.27254
lowerneck -20.0432 -3.55191 -9.9408
upperneck 21.299 -3.66045 7.19989
head 10.4636 -1.63672 3.69371
rclavicle 1.78906e-014 -1.27222e-014
rhumerus -58.5545 -1.81048 -86.4456
rradius 84.7492
rwrist -1.97883
rhand -29.5963 26.9244
rfingers 7.12502
rthumb -2.92757 -3.03524
lclavicle 1.78906e-014 -1.27222e-014
lhumerus -31.1316 0.84712 90.2798
lradius 116.097
lwrist 22.3065
lhand -29.8802 12.6184
lfingers 7.12502
lthumb -3.20179 42.5741
rfemur -26.9984 -1.32704 15.1268
rtibia 20.2922
rfoot -4.54281 -7.65551
rtoes -10.4058
lfemur -1.95089 -4.26674 -24.447
ltibia 52.5908
lfoot -27.8567 4.76497
ltoes -11.7853
99
root -0.552236 16.1329 17.5789 -10.0088 4.80048 2.04542
lowerback 10.7793 -1.61461 -3.52104
upperback 0.297941 -2.50764 1.29708
thorax -5.52622 -1.12644 3.7286
lowerneck -19.731 -3.43413 -10.0605
upperneck 21.3604 -3.47986 7.15127
head 10.411 -1.57598 3.72498
rclavicle 1.02374e-014 -3.97569e-015
rhumerus -59.928 -2.07136 -85.4571
rradius 85.206
rwrist -2.48652
rhand -29.6318 26.6223
rfingers 7.12502
rthumb -2.96188 -3.3369
lclavicle 1.02374e-014 -3.97569e-015
lhumerus -30.9251 0.500543 89.6777
lradius 116.528
lwrist 21.6981
lhand -29.5492 12.9071
lfingers 7.12502
lthumb -2.8821 42.8674
rfemur -25.9049 0.604313 14.088
rtibia 16.8958
rfoot -4.09122 -9.19188
rtoes -9.68973
lfemur -0.456925 -4.60676 -24.6173
ltibia 51.676
lfoot -27.6991 4.59009
ltoes -13.1955
100
root -0.593651 16.1362 17.9243 -9.79791 4.98853 2.16385
lowerback 10.2968 -1.74879 -3.6597
upperback 0.0474021 -2.6905 1.29667
thorax -5.49728 -1.21014 3.81812
lowerneck -19.3346 -3.35467 -10.2045
upperneck 21.4302 -3.38944 7.233
head 10.3571 -1.54465 3.79447
rclavicle 1.98785e-016 6.36111e-015
rhumerus -61.3333 -2.36162 -84.4869
rradius 85.5992
rwrist -3.1631
rhand -29.5525 26.7816
rfingers 7.12502
rthumb -2.88526 -3.17867
lclavicle 1.98785e-016 6.36111e-015
lhumerus -30.8299 -0.0119843 89.0716
lradius 116.73
lwrist 20.7358
lhand -29.2978 12.3906
lfingers 7.12502
lthumb -2.63927 42.354
rfemur -24.8835 2.09623 13.3894
rtibia 14.1818
rfoot -3.44631 -10.4492
rtoes -8.16167
lfemur 0.970573 -4.89043 -24.6423
ltibia 51.0524
lfoot -27.4087 4.51503
ltoes -15.3969
101
root -0.628294 16.1239 18.2697 -9.55101 5.34546 2.63848
lowerback 9.7939 -1.93006 -4.06224
upperback -0.181357 -2.97278 1.14558
thorax -5.41822 -1.3393 3.90749
lowerneck -19.2629 -3.25168 -10.1822
upperneck 21.8093 -3.27174 7.21734
head 10.4682 -1.49661 3.81161
rclavicle 2.77305e-014 -3.97569e-015
rhumerus -62.6674 -2.492 -83.6818
rradius 85.9817
rwrist -3.9767
rhand -29.5378 26.9004
rfingers 7.12502
rthumb -2.87108 -3.06004
lclavicle 2.77305e-014 -3.97569e-015
lhumerus -30.7862 -0.460803 88.2881
lradius 116.916
lwrist 19.5613
lhand -28.7445 12.1253
lfingers 7.12502
lthumb -2.10495 42.0946
rfemur -24.0731 2.78927 12.5017
rtibia 12.2804
rfoot -2.63179 -11.1185
rtoes -6.77487
lfemur 2.25574 -5.26243 -25.1343
ltibia 50.7631
lfoot -27.07 4.42046
ltoes -16.9467
102
root -0.666424 16.0926 18.6057 -9.38564 5.67353 3.22869
lowerback 9.52221 -2.05288 -4.6387
upperback -0.379858 -3.203 0.99207
thorax -5.43123 -1.43513 4.09337
lowerneck -19.4098 -3.15937 -10.0952
upperneck 22.3079 -3.13651 7.07261
head 10.6602 -1.4485 3.77626
rclavicle 1.93318e-014 -1.03368e-014
rhumerus -64.0212 -2.76746 -82.7685
rradius 86.5414
rwrist -4.68972
rhand -29.4343 26.8242
rfingers 7.12502
rthumb -2.77116 -3.13758
lclavicle 1.93318e-014 -1.03368e-014
lhumerus -30.5601 -0.915093 87.5175
lradius 116.929
lwrist 18.4353
lhand -27.9059 11.6952
lfingers 7.12502
lthumb -1.29503 41.671
rfemur -23.4498 3.11261 11.7508
rtibia 11.224
rfoot -1.83371 -11.2932
rtoes -6.19363
lfemur 3.38461 -5.51773 -25.7273
ltibia 50.8582
lfoot -26.7203 4.3302
ltoes -18.4182
103
root -0.70719 16.061 18.93 -9.23808 5.89358 3.33812
lowerback 9.21351 -2.14108 -4.77126
upperback -0.459957 -3.32066 1.02082
thorax -5.32068 -1.49156 4.199
lowerneck -19.6139 -3.16482 -10.2339
upperneck 22.5339 -3.07938 7.04295
head 10.7789 -1.43772 3.80312
rclavicle -3.53837e-014 -2.22639e-014
rhumerus -64.8889 -3.15338 -81.7405
rradius 86.8222
rwrist -4.98013
rhand -29.287 26.2201
rfingers 7.12502
rthumb -2.62892 -3.74345
lclavicle -3.53837e-014 -2.22639e-014
lhumerus -29.9798 -1.31788 86.9148
lradius 116.759
lwrist 17.3263
lhand -26.7534 11.13
lfingers 7.12502
lthumb -0.18195 41.1097
rfemur -23.1257 3.19242 11.7245
rtibia 11.1428
rfoot -1.73286 -10.9735
rtoes -5.01322
lfemur 4.07352 -5.65549 -25.6936
ltibia 51.3843
lfoot -25.9722 3.99758
ltoes -19.8934
104
root -0.747574 16.0334 19.2467 -9.1611 5.99146 3.13719
lowerback 9.03315 -2.21859 -4.57405
upperback -0.563521 -3.38951 1.14267
thorax -5.32434 -1.5276 4.21818
lowerneck -19.5498 -3.1782 -10.2488
upperneck 22.4777 -3.03126 6.79162
head 10.7383 -1.44797 3.71829
rclavicle -3.70733e-014 -5.56597e-015
rhumerus -65.528 -3.34404 -80.7493
rradius 86.7621
rwrist -4.87431
rhand -29.2166 25.599
rfingers 7.12502
rthumb -2.56091 -4.36541
lclavicle -3.70733e-014 -5.56597e-015
lhumerus -29.6096 -1.65715 86.3119
lradius 116.625
lwrist 16.3916
lhand -25.7178 10.9064
lfingers 7.12502
lthumb 0.818288 40.8845
rfemur -23.3201 3.16435 12.1256
rtibia 12.2743
rfoot 2.16875 -9.4709
rtoes -11.2682
lfemur 4.50185 -5.68936 -25.2297
ltibia 52.1945
lfoot -24.7889 3.14272
ltoes -20.8035
105
root -0.788675 16.0135 19.5492 -9.05511 5.92854 2.97949
lowerback 9.19434 -2.23288 -4.41508
upperback -0.926668 -3.39887 1.26301
thorax -5.79959 -1.51254 4.27931
lowerneck -19.1467 -3.15071 -10.3753
upperneck 22.4297 -2.96671 6.68322
head 10.6389 -1.4484 3.70785
rclavicle -5.08889e-014 2.70347e-014
rhumerus -66.5796 -3.267 -79.8273
rradius 86.7232
rwrist -4.6784
rhand -29.2216 25.3771
rfingers 7.12502
rthumb -2.56571 -4.58722
lclavicle -5.08889e-014 2.70347e-014
lhumerus -29.8732 -1.93648 85.7698
lradius 116.498
lwrist 15.5504
lhand -24.9909 10.6978
lfingers 7.12502
lthumb 1.52032 40.6721
rfemur -24.1841 3.25391 12.4163
rtibia 14.3319
rfoot 4.15314 -8.57136
rtoes -4.79513
lfemur 4.70981 -5.50383 -24.6952
ltibia 53.232
lfoot -23.5068 2.03399
ltoes -21.2431
106
root -0.825281 16.0042 19.85 -9.01418 6.1214 3.12258
lowerback 9.42476 -2.28899 -4.48063
upperback -1.23741 -3.49927 1.23844
thorax -6.24736 -1.53899 4.32895
lowerneck -18.8886 -3.06497 -10.5026
upperneck 22.54 -2.85833 6.75687
head 10.6225 -1.40676 3.77513
rclavicle -7.45443e-015 5.56597e-015
rhumerus -67.4656 -3.23689 -79.0177
rradius 86.5339
rwrist -4.39985
rhand -29.3498 25.5313
rfingers 7.12502
rthumb -2.68952 -4.4315
lclavicle -7.45443e-015 5.56597e-015
lhumerus -29.929 -2.15396 85.2876
lradius 116.087
lwrist 14.9925
lhand -24.5987 10.2158
lfingers 7.12502
lthumb 1.89918 40.1871
rfemur -25.2646 2.55023 12.3953
rtibia 17.1577
rfoot 9.08595 -6.62864
rtoes -7.6659
lfemur 4.90546 -5.47383 -24.5487
ltibia 54.4537
lfoot -22.0947 0.977234
ltoes -21.4648
107
root -0.855916 15.9792 20.1426 -9.28163 6.4048 3.0234
lowerback 9.74621 -2.37737 -4.23645
upperback -1.15947 -3.60123 1.22721
thorax -6.35146 -1.59551 4.20989
lowerneck -19.157 -3.03491 -10.4148
upperneck 22.5393 -2.77967 6.63255
head 10.6624 -1.37384 3.72647
rclavicle -1.70955e-014 7.95139e-016
rhumerus -67.6577 -3.41365 -78.273
rradius 86.3157
rwrist -3.86904
rhand -29.5425 26.0626
rfingers 7.12502
rthumb -2.87562 -3.89778
lclavicle -1.70955e-014 7.95139e-016
lhumerus -29.5112 -2.19791 84.8819
lradius 115.432
lwrist 14.527
lhand -24.377 8.97922
lfingers 7.12502
lthumb 2.11328 38.9485
rfemur -26.1741 1.10949 12.8491
rtibia 20.6352
rfoot 14.0206 -2.75864
rtoes 2.90397
lfemur 5.19419 -5.52569 -24.1988
ltibia 55.833
lfoot -20.5254 -0.119675
ltoes -22.5088
108
root -0.884321 15.9266 20.4048 -9.54385 6.20428 2.51263
lowerback 10.2807 -2.33005 -3.53267
upperback -0.994195 -3.46154 1.33508
thorax -6.52617 -1.54655 3.93364
lowerneck -19.8941 -3.03961 -10.1979
upperneck 22.6041 -2.71185 6.3962
head 10.8134 -1.34259 3.61523
rclavicle 1.39149e-015 3.97569e-015
rhumerus -67.3909 -3.78003 -77.6018
rradius 85.9068
rwrist -3.16778
rhand -29.6697 26.4488
rfingers 7.12502
rthumb -2.99851 -3.50985
lclavicle 1.39149e-015 3.97569e-015
lhumerus -29.2158 -2.19358 84.6388
lradius 114.814
lwrist 13.9384
lhand -24.2472 7.80913
lfingers 7.12502
lthumb 2.23858 37.7771
rfemur -27.4276 0.159983 13.9317
rtibia 24.6537
rfoot 13.3337 4.43941
rtoes 4.56763
lfemur 5.0901 -5.2094 -23.3003
ltibia 57.5671
lfoot -18.741 -1.02443
ltoes -23.6908
109
root -0.902951 15.9208 20.659 -9.95582 5.82747 1.82925
lowerback 10.9578 -2.28915 -2.64781
upperback -0.811183 -3.29453 1.54639
thorax -6.76627 -1.4875 3.66593
lowerneck -20.4716 -2.99167 -10.1023
upperneck 22.6377 -2.56847 6.23439
head 10.9184 -1.28094 3.56276
rclavicle -3.67752e-014 1.98785e-014
rhumerus -67.0257 -3.88986 -76.9986
rradius 85.2948
rwrist -2.52017
rhand -29.4255 26.8652
rfingers 7.12502
rthumb -2.76266 -3.09669
lclavicle -3.67752e-014 1.98785e-014
lhumerus -29.1162 -1.93527 84.6651
lradius 114.166
lwrist 13.4416
lhand -24.1223 7.46594
lfingers 7.12502
lthumb 2.35927 37.4326
rfemur -29.0541 -0.925543 15.5121
rtibia 28.2471
rfoot 11.7738 4.45027
rtoes 3.26776
lfemur 5.15764 -4.78492 -22.2828
ltibia 59.2798
lfoot -17.1184 -1.61473
ltoes -24.759
